<?xml version="1.0" encoding="UTF-8" standalone="no"?><svg xmlns="http://www.w3.org/2000/svg" xmlns:xlink="http://www.w3.org/1999/xlink" contentStyleType="text/css" height="244px" preserveAspectRatio="none" style="width:1302px;height:244px;background:#FFFFFF;" version="1.1" viewBox="0 0 1302 244" width="1302px" zoomAndPan="magnify"><defs/><g><!--MD5=[7ceda4e0a28d65e0f6e17dad790f4825]
entity LDAP--><g id="elem_LDAP"><path d="M1229,192.5 C1229,182.5 1257,182.5 1257,182.5 C1257,182.5 1285,182.5 1285,192.5 L1285,217.7969 C1285,227.7969 1257,227.7969 1257,227.7969 C1257,227.7969 1229,227.7969 1229,217.7969 L1229,192.5 " fill="#F1F1F1" style="stroke:#181818;stroke-width:0.5;"/><path d="M1229,192.5 C1229,202.5 1257,202.5 1257,202.5 C1257,202.5 1285,202.5 1285,192.5 " fill="none" style="stroke:#181818;stroke-width:0.5;"/><text fill="#000000" font-family="sans-serif" font-size="14" lengthAdjust="spacing" textLength="36" x="1239" y="219.4951">LDAP</text></g><g id="elem_secret_openldap_simple_bind"><rect fill="#F1F1F1" height="60.8906" style="stroke:#181818;stroke-width:0.5;" width="305" x="308.5" y="175"/><text fill="#000000" font-family="sans-serif" font-size="14" lengthAdjust="spacing" textLength="199" x="361.5" y="189.9951">Secret openldap-simple-bind</text><line style="stroke:#181818;stroke-width:1.0;" x1="308.5" x2="613.5" y1="195.2969" y2="195.2969"/><text fill="#000000" font-family="sans-serif" font-size="14" lengthAdjust="spacing" textLength="31" x="331.5" y="210.292">user</text><text fill="#000000" font-family="sans-serif" font-size="14" lengthAdjust="spacing" textLength="218" x="390.5" y="210.292">cn=admin,dc=example,dc=org</text><line style="stroke:#181818;stroke-width:1.0;" x1="385.5" x2="385.5" y1="195.2969" y2="215.5938"/><line style="stroke:#181818;stroke-width:1.0;" x1="308.5" x2="613.5" y1="215.5938" y2="215.5938"/><text fill="#000000" font-family="sans-serif" font-size="14" lengthAdjust="spacing" textLength="67" x="313.5" y="230.5889">password</text><text fill="#000000" font-family="sans-serif" font-size="14" lengthAdjust="spacing" textLength="42" x="390.5" y="230.5889">admin</text><line style="stroke:#181818;stroke-width:1.0;" x1="385.5" x2="385.5" y1="215.5938" y2="235.8906"/></g><g id="elem_secret_openldap_simple_ca"><rect fill="#F1F1F1" height="40.5938" style="stroke:#181818;stroke-width:0.5;" width="234" x="952" y="185"/><text fill="#000000" font-family="sans-serif" font-size="14" lengthAdjust="spacing" textLength="185" x="976.5" y="199.9951">Secret openldap-simple-ca</text><line style="stroke:#181818;stroke-width:1.0;" x1="952" x2="1186" y1="205.2969" y2="205.2969"/><text fill="#000000" font-family="sans-serif" font-size="14" lengthAdjust="spacing" textLength="45" x="957" y="220.292">caCert</text><text fill="#000000" font-family="sans-serif" font-size="14" lengthAdjust="spacing" textLength="169" x="1012" y="220.292">&lt;ca certificate content&gt;</text><line style="stroke:#181818;stroke-width:1.0;" x1="1007" x2="1007" y1="205.2969" y2="225.5938"/></g><g id="elem_secret_class_openldap_simple_bind"><rect fill="#F1F1F1" height="40.5938" style="stroke:#181818;stroke-width:0.5;" width="250" x="7" y="185"/><text fill="#000000" font-family="sans-serif" font-size="14" lengthAdjust="spacing" textLength="236" x="14" y="199.9951">SecretClass openldap-simple-bind</text><line style="stroke:#181818;stroke-width:1.0;" x1="7" x2="257" y1="205.2969" y2="205.2969"/><text fill="#000000" font-family="sans-serif" font-size="14" lengthAdjust="spacing" textLength="73" x="95.5" y="220.292">k8sSearch</text></g><g id="elem_secret_class_openldap_simple_ca"><rect fill="#F1F1F1" height="40.5938" style="stroke:#181818;stroke-width:0.5;" width="236" x="665" y="185"/><text fill="#000000" font-family="sans-serif" font-size="14" lengthAdjust="spacing" textLength="222" x="672" y="199.9951">SecretClass openldap-simple-ca</text><line style="stroke:#181818;stroke-width:1.0;" x1="665" x2="901" y1="205.2969" y2="205.2969"/><text fill="#000000" font-family="sans-serif" font-size="14" lengthAdjust="spacing" textLength="73" x="746.5" y="220.292">k8sSearch</text></g><g id="elem_authentication_class_openldap_simple"><rect fill="#F1F1F1" height="101.4844" style="stroke:#181818;stroke-width:0.5;" width="371" x="596.5" y="7"/><text fill="#000000" font-family="sans-serif" font-size="14" lengthAdjust="spacing" textLength="256" x="654" y="21.9951">AuthenticationClass openldap-simple</text><line style="stroke:#181818;stroke-width:1.0;" x1="596.5" x2="967.5" y1="27.2969" y2="27.2969"/><text fill="#000000" font-family="sans-serif" font-size="14" lengthAdjust="spacing" textLength="61" x="751.5" y="42.292">ldapHost</text><line style="stroke:#181818;stroke-width:1.0;" x1="596.5" x2="967.5" y1="47.5938" y2="47.5938"/><text fill="#000000" font-family="sans-serif" font-size="14" lengthAdjust="spacing" textLength="135" x="714.5" y="62.5889">tlsServerVerification</text><line style="stroke:#181818;stroke-width:1.0;" x1="596.5" x2="967.5" y1="67.8906" y2="67.8906"/><text fill="#000000" font-family="sans-serif" font-size="14" lengthAdjust="spacing" textLength="108" x="728" y="82.8857">bindCredentials</text><line style="stroke:#181818;stroke-width:1.0;" x1="596.5" x2="967.5" y1="88.1875" y2="88.1875"/><text fill="#000000" font-family="sans-serif" font-size="14" lengthAdjust="spacing" textLength="112" x="613" y="103.1826">ldapSearchBase</text><text fill="#000000" font-family="sans-serif" font-size="14" lengthAdjust="spacing" textLength="216" x="746.5" y="103.1826">ou=users,dc=example,dc=org</text><line style="stroke:#181818;stroke-width:1.0;" x1="741.5" x2="741.5" y1="88.1875" y2="108.4844"/></g><!--MD5=[b01cbb5cabf9d315d9c994b3e4e9954e]
link secret_class_openldap_simple_bind to secret_openldap_simple_bind--><g id="link_secret_class_openldap_simple_bind_secret_openldap_simple_bind"><path d="M258,215 C270.17,217.3 282.74,219.11 295.39,220.47 " fill="none" id="secret_class_openldap_simple_bind-to-secret_openldap_simple_bind" style="stroke:#181818;stroke-width:1.0;"/><polygon fill="#181818" points="300.43,220.99,291.8741,216.1119,295.455,220.4911,291.0758,224.072,300.43,220.99" style="stroke:#181818;stroke-width:1.0;"/></g><!--MD5=[c0eb0e97dd636255943aeff87471c522]
link secret_class_openldap_simple_ca to secret_openldap_simple_ca--><g id="link_secret_class_openldap_simple_ca_secret_openldap_simple_ca"><path d="M902,215 C913.87,217.73 926.22,219.77 938.57,221.19 " fill="none" id="secret_class_openldap_simple_ca-to-secret_openldap_simple_ca" style="stroke:#181818;stroke-width:1.0;"/><polygon fill="#181818" points="943.86,221.76,935.3333,216.8309,938.888,221.2314,934.4875,224.786,943.86,221.76" style="stroke:#181818;stroke-width:1.0;"/></g><!--MD5=[66698df798bf320606171d426cc3ab8d]
link authentication_class_openldap_simple to LDAP--><g id="link_authentication_class_openldap_simple_LDAP"><path d="M969,37 C1080.31,37 1187.14,131.51 1233.23,178.33 " fill="none" id="authentication_class_openldap_simple-to-LDAP" style="stroke:#181818;stroke-width:1.0;"/><polygon fill="#181818" points="1236.97,182.17,1233.5464,172.9354,1233.4777,178.5918,1227.8212,178.5231,1236.97,182.17" style="stroke:#181818;stroke-width:1.0;"/></g><!--MD5=[978b3ba267d21a0e24c1145c19b14f3e]
link authentication_class_openldap_simple to secret_class_openldap_simple_ca--><g id="link_authentication_class_openldap_simple_secret_class_openldap_simple_ca"><path d="M969,57 C993,57 980.79,90.68 968,111 C947.65,143.33 912.31,164.85 877.94,178.95 " fill="none" id="authentication_class_openldap_simple-to-secret_class_openldap_simple_ca" style="stroke:#181818;stroke-width:1.0;"/><polygon fill="#181818" points="872.88,180.98,882.7219,181.3514,877.5224,179.123,879.7507,173.9236,872.88,180.98" style="stroke:#181818;stroke-width:1.0;"/></g><!--MD5=[85a8047ed36580d25939222faa70f7f9]
link authentication_class_openldap_simple to secret_class_openldap_simple_bind--><g id="link_authentication_class_openldap_simple_secret_class_openldap_simple_bind"><path d="M596,77 C443.33,77 272.11,141.75 186.68,178.78 " fill="none" id="authentication_class_openldap_simple-to-secret_class_openldap_simple_bind" style="stroke:#181818;stroke-width:1.0;"/><polygon fill="#181818" points="181.92,180.85,191.7686,180.9185,186.5031,178.8512,188.5705,173.5856,181.92,180.85" style="stroke:#181818;stroke-width:1.0;"/></g><!--MD5=[214cf7f44e9594118bcda275fd911b6e]
@startuml
allowmixing

database LDAP

map "Secret openldap-simple-bind" as secret_openldap_simple_bind {
    user => cn=admin,dc=example,dc=org
    password => admin
}

map "Secret openldap-simple-ca" as secret_openldap_simple_ca {
    caCert => <ca certificate content>
}

map "SecretClass openldap-simple-bind" as secret_class_openldap_simple_bind {
    k8sSearch *-> secret_openldap_simple_bind
}

map "SecretClass openldap-simple-ca" as secret_class_openldap_simple_ca {
    k8sSearch *-> secret_openldap_simple_ca
}

map "AuthenticationClass openldap-simple" as authentication_class_openldap_simple {
    ldapHost *- -> LDAP
    tlsServerVerification *- -> secret_class_openldap_simple_ca
    bindCredentials *- -> secret_class_openldap_simple_bind
    ldapSearchBase => ou=users,dc=example,dc=org
}
@enduml

PlantUML version 1.2022.12(Sun Oct 23 18:12:26 GMT 2022)
(GPL source distribution)
Java Runtime: OpenJDK Runtime Environment
JVM: OpenJDK 64-Bit Server VM
Default Encoding: UTF-8
Language: en
Country: US
--></g></svg>