<svg version="1.1" xmlns="http://www.w3.org/2000/svg" viewBox="0 0 551.5 328.5" width="551.5" height="328.5">
  <!-- svg-source:excalidraw -->
  
  <defs>
    <style>
      @font-face {
        font-family: "Virgil";
        src: url("https://excalidraw.com/Virgil.woff2");
      }
      @font-face {
        font-family: "Cascadia";
        src: url("https://excalidraw.com/Cascadia.woff2");
      }
    </style>
  </defs>
  <rect x="0" y="0" width="551.5" height="328.5" fill="#ffffff"></rect><g stroke-linecap="round" transform="translate(388.5 115) rotate(0 76.5 31)"><path d="M1.22 0.08 C32.14 -0.01, 65.35 -0.55, 154.46 -0.28 M-0.06 -0.96 C37.85 1.19, 74.96 1.76, 152.9 0.8 M154.89 -0.01 C153.92 14.08, 151.48 26.84, 153.22 62.35 M153.79 0.16 C152.7 17.21, 153.95 33.06, 153.73 62.89 M153.46 63.04 C117.93 61.48, 80.3 62.28, -1.69 60.07 M153.53 62.01 C103.84 61.4, 54.61 61.21, 0.68 61.39 M-1.86 62.27 C-2.57 44.6, -1.69 30.77, 0.87 -0.09 M-0.39 62.13 C0.41 39.4, -1.43 17.8, -0.05 0.86" stroke="#000000" stroke-width="1" fill="none"></path></g><g transform="translate(393.5 133.5) rotate(0 71.5 12.5)"><text x="71.5" y="18" font-family="Virgil, Segoe UI Emoji" font-size="20px" fill="#000000" text-anchor="middle" style="white-space: pre;" direction="ltr">TrinoCluster</text></g><g stroke-linecap="round" transform="translate(131.5 68) rotate(0 68.5 22.5)"><path d="M-0.48 -0.92 C33.05 -1.52, 67.34 -0.34, 135.86 1.24 M0.7 0.1 C32.01 1.98, 62.6 2.11, 136.19 0.53 M137.6 0.5 C135.58 10.57, 137.65 22.13, 136.34 46.58 M136.2 0.65 C137.81 11.41, 138.09 23.84, 136.38 44.34 M138.33 45.5 C105.15 47.01, 71.39 43.78, 0.42 43.68 M136.96 44.39 C95.61 44.2, 55.16 44.39, -0.51 45.97 M-1.97 43.04 C-0.67 33.66, 1.29 22.92, 1 1.79 M0.96 44.11 C-0.7 27.15, 0.13 11.74, 0.44 0.57" stroke="#000000" stroke-width="1" fill="none"></path></g><g transform="translate(136.5 78.5) rotate(0 63.5 12.5)"><text x="63.5" y="18" font-family="Virgil, Segoe UI Emoji" font-size="20px" fill="#000000" text-anchor="middle" style="white-space: pre;" direction="ltr">Connector</text></g><g stroke-linecap="round" transform="translate(99.5 10) rotate(0 89.5 57)"><path d="M0.11 -1.47 C55.86 0.54, 107.65 2.07, 177.58 -0.12 M0.66 0.67 C36.44 0.61, 72.28 0.34, 178.42 0.95 M177.15 -0.32 C179.57 34.5, 178.68 69.88, 178.1 115.57 M179.46 -0.06 C178.83 36.96, 177.47 71.47, 178.33 114.23 M179.11 115.3 C114.34 112.52, 53.48 113.13, 0.02 115.05 M178.87 113.19 C125.88 112.29, 70.9 113.88, -0.56 113.07 M-1.09 113.65 C1.99 78.2, 2.12 44.35, 1.58 -0.78 M-0.88 113.21 C-1.14 79.2, -0.66 43.24, -0.92 0.98" stroke="#000000" stroke-width="1" fill="none"></path></g><g stroke-linecap="round"><g transform="translate(280.08974358974365 116.05977776921623) rotate(0 46.25641025641022 9.17513281109143)"><path d="M0.88 -0.17 C16.17 3.16, 76.7 16.02, 91.83 19.09 M-0.12 -1.31 C15.56 1.76, 78.47 13.88, 94.18 17.36" stroke="#000000" stroke-width="1" fill="none"></path></g><g transform="translate(280.08974358974365 116.05977776921623) rotate(0 46.25641025641022 9.17513281109143)"><path d="M64.22 20.61 C74.84 18.77, 82.55 16.94, 95.57 17.57 M65.3 20.94 C75.86 19.6, 87.15 18.56, 94.48 17.61" stroke="#000000" stroke-width="1" fill="none"></path></g><g transform="translate(280.08974358974365 116.05977776921623) rotate(0 46.25641025641022 9.17513281109143)"><path d="M68.34 0.51 C77.56 4.84, 84.01 9.15, 95.57 17.57 M69.42 0.84 C78.61 6.85, 88.39 13.18, 94.48 17.61" stroke="#000000" stroke-width="1" fill="none"></path></g></g><g transform="translate(112.5 21.5) rotate(0 64 12.5)"><text x="0" y="18" font-family="Virgil, Segoe UI Emoji" font-size="20px" fill="#000000" text-anchor="start" style="white-space: pre;" direction="ltr">TrinoCatalog</text></g><g stroke-linecap="round" transform="translate(10.5 38) rotate(0 28 28)"><path d="M31.98 -0.77 C37.96 -0.34, 45.19 4.34, 49.26 8.99 C53.32 13.64, 56.3 21.12, 56.35 27.16 C56.41 33.2, 53.37 40.65, 49.57 45.23 C45.77 49.81, 39.12 53.47, 33.57 54.64 C28.02 55.81, 21.46 54.85, 16.28 52.23 C11.1 49.61, 4.91 44.18, 2.5 38.93 C0.09 33.67, 0.1 26.54, 1.82 20.71 C3.54 14.87, 6.93 7.04, 12.83 3.94 C18.72 0.83, 32.23 1.79, 37.19 2.06 C42.14 2.33, 42.6 5.27, 42.57 5.58 M25.44 -0.07 C30.85 -0.91, 38.52 2, 43.46 5.42 C48.39 8.83, 53.21 14.58, 55.05 20.43 C56.88 26.28, 57.02 34.86, 54.48 40.52 C51.95 46.17, 45.2 52.1, 39.84 54.36 C34.48 56.63, 28.21 56, 22.32 54.12 C16.43 52.24, 8.1 47.56, 4.48 43.08 C0.87 38.6, -0.03 32.98, 0.63 27.22 C1.3 21.47, 4.65 13.22, 8.48 8.56 C12.31 3.89, 20.89 0.6, 23.59 -0.79 C26.29 -2.19, 24.26 -0.39, 24.65 0.18" stroke="#b80069" stroke-width="1" fill="none"></path></g><g transform="translate(15.5 43) rotate(0 23 23)"><text x="23" y="32" font-family="Virgil, Segoe UI Emoji" font-size="36px" fill="#b80069" text-anchor="middle" style="white-space: pre;" direction="ltr">1</text></g><g stroke-linecap="round" transform="translate(10 233.5) rotate(0 28 28)"><path d="M36.27 2.14 C41.79 3.54, 47.51 9.25, 50.88 14.01 C54.25 18.78, 57.07 24.97, 56.47 30.74 C55.87 36.51, 51.88 44.48, 47.27 48.64 C42.66 52.8, 34.85 55.51, 28.81 55.69 C22.77 55.86, 15.75 53.42, 11.06 49.68 C6.36 45.93, 1.82 39.01, 0.63 33.2 C-0.56 27.38, 1.2 19.85, 3.9 14.77 C6.6 9.69, 10.74 4.69, 16.84 2.72 C22.94 0.75, 36.15 2.36, 40.52 2.95 C44.88 3.54, 43.3 5.8, 43.02 6.23 M23.62 -0.78 C29.3 -2.33, 36.56 0.89, 41.53 3.84 C46.51 6.79, 51.5 11.58, 53.48 16.91 C55.46 22.24, 54.96 29.98, 53.41 35.82 C51.86 41.66, 48.96 48.5, 44.2 51.96 C39.43 55.41, 31.12 57.36, 24.85 56.55 C18.58 55.74, 10.92 51.55, 6.56 47.11 C2.2 42.68, -1.17 36.24, -1.31 29.94 C-1.46 23.63, 1.86 14.25, 5.69 9.26 C9.52 4.28, 18.88 1.43, 21.66 0.03 C24.45 -1.36, 22.32 0.53, 22.39 0.88" stroke="#b80069" stroke-width="1" fill="none"></path></g><g transform="translate(15 238.5) rotate(0 23 23)"><text x="23" y="32" font-family="Virgil, Segoe UI Emoji" font-size="36px" fill="#b80069" text-anchor="middle" style="white-space: pre;" direction="ltr">2</text></g><g stroke-linecap="round" transform="translate(131.5 262.5) rotate(0 68.5 22.5)"><path d="M0.02 0.28 C33.59 -0.45, 71 2.47, 136.62 -1.08 M0.42 -0.24 C54.35 -0.46, 107.52 0.71, 136.03 -0.9 M138.82 -1.74 C135.44 9.9, 137.47 19.99, 136.45 44.05 M136.16 -0.27 C137.5 15.36, 136.43 32.25, 136.53 44.91 M135.57 45.96 C108.08 44.8, 78.73 45.33, 1.88 44.03 M137.03 45.98 C90.19 45.07, 45.51 45.63, 0.57 45.96 M1.23 46.88 C2.17 36.37, 2.27 25.11, 1.87 -1.92 M0.65 45.07 C1.3 33.22, 0.11 22.04, 0.96 0.02" stroke="#000000" stroke-width="1" fill="none"></path></g><g transform="translate(136.5 273) rotate(0 63.5 12.5)"><text x="63.5" y="18" font-family="Virgil, Segoe UI Emoji" font-size="20px" fill="#000000" text-anchor="middle" style="white-space: pre;" direction="ltr">Connector</text></g><g stroke-linecap="round" transform="translate(99.5 204.5) rotate(0 89.5 57)"><path d="M-1.7 -1.56 C39.63 1.11, 78.04 -1.34, 180.81 -1.23 M0.84 -0.37 C55.36 1.23, 108.72 -0.47, 178.01 -0.59 M177.71 0.83 C180.77 39.45, 179.49 74.24, 180.27 114.75 M179.33 -1 C177.31 33.76, 177.58 68.34, 178.13 114.8 M179.23 114.31 C131.9 115.69, 86.62 113.89, 0.74 114.84 M178.38 113.26 C115.56 115.56, 50.89 116.71, -0.8 113.23 M1.83 115.29 C1.22 72.48, 1.17 29.14, -0.75 -1.86 M0.89 114.03 C-1.04 72.31, 0.22 29.34, 0.79 -0.47" stroke="#000000" stroke-width="1" fill="none"></path></g><g transform="translate(112.5 216) rotate(0 64 12.5)"><text x="0" y="18" font-family="Virgil, Segoe UI Emoji" font-size="20px" fill="#000000" text-anchor="start" style="white-space: pre;" direction="ltr">TrinoCatalog</text></g><g stroke-linecap="round"><g transform="translate(282.4743589743589 230.80131871271647) rotate(0 49.43589743589746 -41.85815745565401)"><path d="M0.23 -0.67 C16.32 -14.37, 81.19 -69.08, 97.73 -82.89 M-1.11 1.59 C15.23 -12.38, 83.16 -70.63, 99.85 -84.59" stroke="#000000" stroke-width="1" fill="none"></path></g><g transform="translate(282.4743589743589 230.80131871271647) rotate(0 49.43589743589746 -41.85815745565401)"><path d="M83.87 -60.42 C92.44 -67.96, 97.27 -78.2, 99.19 -83.25 M84.41 -57.62 C87.8 -65.27, 91.66 -70.2, 100.75 -84.96" stroke="#000000" stroke-width="1" fill="none"></path></g><g transform="translate(282.4743589743589 230.80131871271647) rotate(0 49.43589743589746 -41.85815745565401)"><path d="M70.6 -76.07 C84.37 -77.39, 94.49 -81.39, 99.19 -83.25 M71.14 -73.26 C77.75 -77.2, 84.73 -78.46, 100.75 -84.96" stroke="#000000" stroke-width="1" fill="none"></path></g></g><g transform="translate(326.5 65.5) rotate(0 68 12.5)"><text x="0" y="18" font-family="Virgil, Segoe UI Emoji" font-size="20px" fill="#000000" text-anchor="start" style="white-space: pre;" direction="ltr">matched label</text></g><g transform="translate(322 206.5) rotate(0 68 12.5)"><text x="0" y="18" font-family="Virgil, Segoe UI Emoji" font-size="20px" fill="#000000" text-anchor="start" style="white-space: pre;" direction="ltr">matched label</text></g></svg>