<svg version="1.1" xmlns="http://www.w3.org/2000/svg" viewBox="0 0 720 447" width="720" height="447">
  <!-- svg-source:excalidraw -->
  
  <defs>
    <style>
      @font-face {
        font-family: "Virgil";
        src: url("https://excalidraw.com/Virgil.woff2");
      }
      @font-face {
        font-family: "Cascadia";
        src: url("https://excalidraw.com/Cascadia.woff2");
      }
    </style>
  </defs>
  <rect x="0" y="0" width="720" height="447" fill="#ffffff"></rect><g stroke-linecap="round" transform="translate(556 18) rotate(0 76.5 19.5)"><path d="M0.66 -0.09 C57.02 1, 117.56 -1.48, 154.93 -1.83 M-0.33 -0.25 C42.82 1.44, 83.67 1.9, 153.77 -0.72 M151.71 1.11 C153.16 14.39, 154.07 31.1, 153.64 38.44 M152.99 -0.54 C154.06 12.61, 153.21 25.79, 153.92 39.63 M154.66 38.75 C104.39 38.47, 56.05 38.29, -0.88 40.56 M152.52 39.15 C113.7 37.54, 76.27 39.12, 0.32 39.51 M-1.06 37.36 C1.05 28.06, -1.33 16.54, 1.81 1.76 M-0.09 39.61 C0.99 25.71, 0.86 11.94, 0.34 0.44" stroke="#000000" stroke-width="1" fill="none"></path></g><g transform="translate(561 25.5) rotate(0 71.5 12)"><text x="71.5" y="17" font-family="Virgil, Segoe UI Emoji" font-size="20px" fill="#000000" text-anchor="middle" style="white-space: pre;" direction="ltr">S3Connection</text></g><g stroke-linecap="round" transform="translate(343 14) rotate(0 68.5 22.5)"><path d="M1.6 -0.53 C30.21 -2.59, 55.85 -2.93, 135.65 0.07 M0.22 0.98 C39.47 -0.22, 77.34 1.41, 136.37 0.7 M137.56 0.98 C138.05 9.41, 135.53 23.72, 137.87 46.56 M137.74 0.67 C137.14 16.64, 136.2 32.37, 137.34 44.18 M138.99 43.42 C83.36 44.61, 30.54 43.14, -1.79 45.2 M136.99 44.73 C97.83 43.85, 56.24 43.16, 0.54 45.94 M0.73 43.25 C1.47 32.87, -1.07 16.42, 0.03 1.75 M-0.32 45.46 C-0.73 30.07, -0.36 16.48, 0.5 -0.65" stroke="#000000" stroke-width="1" fill="none"></path></g><g transform="translate(348 24.5) rotate(0 63.5 12)"><text x="63.5" y="17" font-family="Virgil, Segoe UI Emoji" font-size="20px" fill="#000000" text-anchor="middle" style="white-space: pre;" direction="ltr">S3Bucket</text></g><g stroke-linecap="round" transform="translate(115 14) rotate(0 74 22)"><path d="M-1.04 -0.97 C54.24 0.41, 107.35 1.92, 149.29 0.73 M0.01 0.14 C50.36 0.69, 99.46 -0.09, 148.51 -0.84 M149.35 -0.94 C147.65 14.48, 147.05 26.6, 146.72 43.8 M148.61 0.99 C148.14 17.26, 147.64 35.56, 147.8 45 M149.28 42.82 C101.96 45.27, 57.99 42.53, 1.82 42.69 M147.07 44.43 C93.7 45.77, 38.92 44.59, -0.65 44.52 M-0.41 43.39 C0.1 25.69, 1.26 8.81, 0.87 1.84 M0.1 43.72 C-0.39 30.7, -0.23 18.43, -0.27 -0.5" stroke="#000000" stroke-width="1" fill="none"></path></g><g transform="translate(120 24) rotate(0 69 12)"><text x="69" y="17" font-family="Virgil, Segoe UI Emoji" font-size="20px" fill="#000000" text-anchor="middle" style="white-space: pre;" direction="ltr">DruidCluster</text></g><g stroke-linecap="round"><g transform="translate(270 35) rotate(0 34.5 -1)"><path d="M-0.33 -0.74 C10.95 -1.19, 57.02 -2.29, 68.68 -2.55 M1.7 1.48 C12.7 1.18, 56.32 -0.86, 67.56 -1.31" stroke="#000000" stroke-width="1" fill="none"></path></g><g transform="translate(270 35) rotate(0 34.5 -1)"><path d="M38.6 9.63 C49.5 6.86, 60.48 0.47, 68.19 -0.89 M38.99 10.35 C49.11 6.36, 56.44 2.84, 68.31 -1.29" stroke="#000000" stroke-width="1" fill="none"></path></g><g transform="translate(270 35) rotate(0 34.5 -1)"><path d="M37.71 -10.88 C48.98 -5.8, 60.29 -4.35, 68.19 -0.89 M38.1 -10.15 C48.37 -7.67, 55.98 -4.72, 68.31 -1.29" stroke="#000000" stroke-width="1" fill="none"></path></g></g><g stroke-linecap="round"><g transform="translate(490 38) rotate(0 28 0.5)"><path d="M-0.09 -0.69 C9.31 -0.41, 47.64 1.06, 57 1.25 M-1.59 1.56 C7.68 1.49, 47.09 -0.72, 56.58 -0.74" stroke="#000000" stroke-width="1" fill="none"></path></g><g transform="translate(490 38) rotate(0 28 0.5)"><path d="M29.43 11.36 C40.21 6.11, 48.03 0.69, 55.18 -0.8 M31.4 10.68 C36.3 6.83, 41.7 4.67, 56.17 -0.93" stroke="#000000" stroke-width="1" fill="none"></path></g><g transform="translate(490 38) rotate(0 28 0.5)"><path d="M28.81 -7.78 C39.74 -6.28, 47.78 -4.95, 55.18 -0.8 M30.78 -8.47 C35.92 -8.4, 41.44 -6.65, 56.17 -0.93" stroke="#000000" stroke-width="1" fill="none"></path></g></g><g stroke-linecap="round" transform="translate(557 163.5) rotate(0 76.5 19.5)"><path d="M1.22 0.08 C32.14 -0.01, 65.35 -0.55, 154.46 -0.28 M-0.06 -0.96 C37.85 1.19, 74.96 1.76, 152.9 0.8 M154.89 -0.01 C153.8 9.04, 151.36 16.77, 153.22 39.35 M153.79 0.16 C152.51 11.06, 153.77 20.78, 153.73 39.89 M153.46 40.04 C117.93 38.48, 80.3 39.28, -1.69 37.07 M153.53 39.01 C103.84 38.4, 54.61 38.21, 0.68 38.39 M-1.86 39.27 C-2.34 27.32, -1.47 19.23, 0.87 -0.09 M-0.39 39.13 C0.61 24.46, -1.23 10.9, -0.05 0.86" stroke="#000000" stroke-width="1" fill="none"></path></g><g transform="translate(562 171) rotate(0 71.5 12)"><text x="71.5" y="17" font-family="Virgil, Segoe UI Emoji" font-size="20px" fill="#000000" text-anchor="middle" style="white-space: pre;" direction="ltr">S3Connection</text></g><g stroke-linecap="round" transform="translate(145 165.5) rotate(0 68.5 22.5)"><path d="M-0.48 -0.92 C33.05 -1.52, 67.34 -0.34, 135.86 1.24 M0.7 0.1 C32.01 1.98, 62.6 2.11, 136.19 0.53 M137.6 0.5 C135.58 10.57, 137.65 22.13, 136.34 46.58 M136.2 0.65 C137.81 11.41, 138.09 23.84, 136.38 44.34 M138.33 45.5 C105.15 47.01, 71.39 43.78, 0.42 43.68 M136.96 44.39 C95.61 44.2, 55.16 44.39, -0.51 45.97 M-1.97 43.04 C-0.67 33.66, 1.29 22.92, 1 1.79 M0.96 44.11 C-0.7 27.15, 0.13 11.74, 0.44 0.57" stroke="#000000" stroke-width="1" fill="none"></path></g><g transform="translate(150 176) rotate(0 63.5 12)"><text x="63.5" y="17" font-family="Virgil, Segoe UI Emoji" font-size="20px" fill="#000000" text-anchor="middle" style="white-space: pre;" direction="ltr">S3Bucket</text></g><g stroke-linecap="round" transform="translate(113 107.5) rotate(0 89.5 57)"><path d="M0.11 -1.47 C55.86 0.54, 107.65 2.07, 177.58 -0.12 M0.66 0.67 C36.44 0.61, 72.28 0.34, 178.42 0.95 M177.15 -0.32 C179.57 34.5, 178.68 69.88, 178.1 115.57 M179.46 -0.06 C178.83 36.96, 177.47 71.47, 178.33 114.23 M179.11 115.3 C114.34 112.52, 53.48 113.13, 0.02 115.05 M178.87 113.19 C125.88 112.29, 70.9 113.88, -0.56 113.07 M-1.09 113.65 C1.99 78.2, 2.12 44.35, 1.58 -0.78 M-0.88 113.21 C-1.14 79.2, -0.66 43.24, -0.92 0.98" stroke="#000000" stroke-width="1" fill="none"></path></g><g stroke-linecap="round"><g transform="translate(292 187.85483349844333) rotate(0 127.5 -0.7265126095613823)"><path d="M0.88 -0.17 C43.25 -0.14, 212.1 -0.48, 254.31 -0.71 M-0.12 -1.31 C42.64 -1.54, 213.88 -2.62, 256.67 -2.44" stroke="#000000" stroke-width="1" fill="none"></path></g><g transform="translate(292 187.85483349844333) rotate(0 127.5 -0.7265126095613823)"><path d="M228.21 6.73 C238.42 3.09, 245.67 -0.55, 258.06 -2.24 M229.29 7.06 C239.27 3.54, 250 0.34, 256.96 -2.19" stroke="#000000" stroke-width="1" fill="none"></path></g><g transform="translate(292 187.85483349844333) rotate(0 127.5 -0.7265126095613823)"><path d="M228.17 -13.79 C238.24 -11.16, 245.5 -8.53, 258.06 -2.24 M229.25 -13.46 C239.38 -9.46, 250.13 -5.15, 256.96 -2.19" stroke="#000000" stroke-width="1" fill="none"></path></g></g><g transform="translate(126 119) rotate(0 62 13)"><text x="0" y="18" font-family="Virgil, Segoe UI Emoji" font-size="20px" fill="#000000" text-anchor="start" style="white-space: pre;" direction="ltr">DruidCluster</text></g><g stroke-linecap="round" transform="translate(151 379) rotate(0 76.5 19.5)"><path d="M1.55 1.27 C35.23 2.56, 67.95 0.03, 151.62 1.92 M-0.15 -0.13 C58.31 0.08, 115.53 -0.3, 152.5 0.97 M153.29 -1.75 C151.87 13.68, 152.58 27.33, 153.81 39.37 M153.3 -0.09 C153.66 11.29, 152.48 23.68, 152.42 38.64 M152.53 37.44 C121.57 36.99, 87.54 37.51, -0.74 37.35 M152.31 39.74 C112.43 39.97, 73.01 40.74, -0.77 39.83 M0.85 40.73 C0.58 22.29, 2.05 8.58, 1.35 1.86 M0.17 38.97 C-0.36 25.92, 0.03 12.95, 0.06 0.09" stroke="#000000" stroke-width="1" fill="none"></path></g><g transform="translate(156 386.5) rotate(0 71.5 12)"><text x="71.5" y="17" font-family="Virgil, Segoe UI Emoji" font-size="20px" fill="#000000" text-anchor="middle" style="white-space: pre;" direction="ltr">S3Connection</text></g><g stroke-linecap="round" transform="translate(145 324) rotate(0 82.5 51.5)"><path d="M1.01 1.23 C34.65 -2.35, 68.9 0.87, 166.6 1.59 M0.17 -0.25 C45.28 -0.41, 91.52 1.18, 165.5 -0.82 M164.19 0.02 C165.05 36.88, 165.95 74.11, 165.03 103.64 M165.54 -0.48 C164.67 29.21, 164.73 57.75, 164.13 102.25 M166.22 102.47 C131.26 101.7, 97.12 100.06, -0.81 102.27 M164.12 102.97 C104.13 104.96, 43.7 105.05, 0.96 102.46 M0.37 101.74 C1.4 77.5, 0.91 52.9, 0.83 -0.94 M-0.54 103.24 C-0.33 71.25, -0.11 38.39, 0.51 0.26" stroke="#000000" stroke-width="1" fill="none"></path></g><g stroke-linecap="round" transform="translate(113 266) rotate(0 102.5 85.5)"><path d="M-0.44 -1.16 C73.3 0.59, 150.49 0.29, 204.62 -0.27 M-0.65 -0.56 C58.36 1.31, 118.06 -0.28, 205.52 0.13 M204.9 0.01 C205.12 36.66, 204.34 73.23, 204.64 171.61 M204.36 0.16 C205.34 49.38, 205.05 98.72, 204.03 170.76 M204.85 170.99 C158.87 169.04, 113.33 169.86, 1.16 169.77 M204.46 171.66 C127.69 171.68, 52.6 170.46, -0.43 171.38 M1.84 171.48 C1.04 106.76, 0.52 37.85, 0.28 0.35 M-0.15 171.6 C0.99 120.3, 1.43 69.67, -0.33 -0.75" stroke="#000000" stroke-width="1" fill="none"></path></g><g transform="translate(126 277.5) rotate(0 62 13)"><text x="0" y="18" font-family="Virgil, Segoe UI Emoji" font-size="20px" fill="#000000" text-anchor="start" style="white-space: pre;" direction="ltr">DruidCluster</text></g><g transform="translate(155 334) rotate(0 47.5 13)"><text x="0" y="18" font-family="Virgil, Segoe UI Emoji" font-size="20px" fill="#000000" text-anchor="start" style="white-space: pre;" direction="ltr">S3Bucket</text></g><g stroke-linecap="round" transform="translate(13 10) rotate(0 28 28)"><path d="M31.98 -0.77 C37.96 -0.34, 45.19 4.34, 49.26 8.99 C53.32 13.64, 56.3 21.12, 56.35 27.16 C56.41 33.2, 53.37 40.65, 49.57 45.23 C45.77 49.81, 39.12 53.47, 33.57 54.64 C28.02 55.81, 21.46 54.85, 16.28 52.23 C11.1 49.61, 4.91 44.18, 2.5 38.93 C0.09 33.67, 0.1 26.54, 1.82 20.71 C3.54 14.87, 6.93 7.04, 12.83 3.94 C18.72 0.83, 32.23 1.79, 37.19 2.06 C42.14 2.33, 42.6 5.27, 42.57 5.58 M25.44 -0.07 C30.85 -0.91, 38.52 2, 43.46 5.42 C48.39 8.83, 53.21 14.58, 55.05 20.43 C56.88 26.28, 57.02 34.86, 54.48 40.52 C51.95 46.17, 45.2 52.1, 39.84 54.36 C34.48 56.63, 28.21 56, 22.32 54.12 C16.43 52.24, 8.1 47.56, 4.48 43.08 C0.87 38.6, -0.03 32.98, 0.63 27.22 C1.3 21.47, 4.65 13.22, 8.48 8.56 C12.31 3.89, 20.89 0.6, 23.59 -0.79 C26.29 -2.19, 24.26 -0.39, 24.65 0.18" stroke="#b80069" stroke-width="1" fill="none"></path></g><g transform="translate(18 15) rotate(0 23 23)"><text x="23" y="32" font-family="Virgil, Segoe UI Emoji" font-size="36px" fill="#b80069" text-anchor="middle" style="white-space: pre;" direction="ltr">1</text></g><g stroke-linecap="round" transform="translate(12 136) rotate(0 28 28)"><path d="M36.27 2.14 C41.79 3.54, 47.51 9.25, 50.88 14.01 C54.25 18.78, 57.07 24.97, 56.47 30.74 C55.87 36.51, 51.88 44.48, 47.27 48.64 C42.66 52.8, 34.85 55.51, 28.81 55.69 C22.77 55.86, 15.75 53.42, 11.06 49.68 C6.36 45.93, 1.82 39.01, 0.63 33.2 C-0.56 27.38, 1.2 19.85, 3.9 14.77 C6.6 9.69, 10.74 4.69, 16.84 2.72 C22.94 0.75, 36.15 2.36, 40.52 2.95 C44.88 3.54, 43.3 5.8, 43.02 6.23 M23.62 -0.78 C29.3 -2.33, 36.56 0.89, 41.53 3.84 C46.51 6.79, 51.5 11.58, 53.48 16.91 C55.46 22.24, 54.96 29.98, 53.41 35.82 C51.86 41.66, 48.96 48.5, 44.2 51.96 C39.43 55.41, 31.12 57.36, 24.85 56.55 C18.58 55.74, 10.92 51.55, 6.56 47.11 C2.2 42.68, -1.17 36.24, -1.31 29.94 C-1.46 23.63, 1.86 14.25, 5.69 9.26 C9.52 4.28, 18.88 1.43, 21.66 0.03 C24.45 -1.36, 22.32 0.53, 22.39 0.88" stroke="#b80069" stroke-width="1" fill="none"></path></g><g transform="translate(17 141) rotate(0 23 23)"><text x="23" y="32" font-family="Virgil, Segoe UI Emoji" font-size="36px" fill="#b80069" text-anchor="middle" style="white-space: pre;" direction="ltr">2</text></g><g stroke-linecap="round" transform="translate(10 329) rotate(0 28 28)"><path d="M27.37 -0.48 C33.1 -1.08, 40.57 1.49, 45.36 5.26 C50.15 9.02, 55 16.01, 56.12 22.12 C57.25 28.23, 55.06 36.59, 52.12 41.92 C49.19 47.25, 44.1 51.87, 38.51 54.12 C32.93 56.37, 24.39 57.28, 18.62 55.4 C12.86 53.52, 7.04 48.16, 3.91 42.84 C0.79 37.52, -1.11 29.26, -0.12 23.46 C0.88 17.65, 4.95 11.85, 9.87 8 C14.78 4.14, 25.4 1.53, 29.35 0.32 C33.3 -0.89, 33.52 0.43, 33.57 0.72 M20.65 2.04 C25.67 0.08, 33.21 0.28, 38.38 2.66 C43.54 5.04, 48.87 11.3, 51.64 16.34 C54.41 21.37, 56.23 27.3, 55 32.88 C53.76 38.46, 48.99 46.02, 44.25 49.82 C39.5 53.62, 32.55 56.12, 26.54 55.69 C20.52 55.26, 12.55 51.39, 8.16 47.22 C3.77 43.06, 0.76 36.41, 0.18 30.69 C-0.4 24.96, 1.47 17.9, 4.68 12.87 C7.9 7.85, 17.05 2.61, 19.46 0.52 C21.87 -1.56, 18.78 -0.34, 19.14 0.38" stroke="#b80069" stroke-width="1" fill="none"></path></g><g transform="translate(15 334) rotate(0 23 23)"><text x="23" y="32" font-family="Virgil, Segoe UI Emoji" font-size="36px" fill="#b80069" text-anchor="middle" style="white-space: pre;" direction="ltr">3</text></g></svg>