<svg version="1.1" xmlns="http://www.w3.org/2000/svg" viewBox="0 0 614 65" width="614" height="65">
  <!-- svg-source:excalidraw -->
  
  <defs>
    <style>
      @font-face {
        font-family: "Virgil";
        src: url("https://excalidraw.com/Virgil.woff2");
      }
      @font-face {
        font-family: "Cascadia";
        src: url("https://excalidraw.com/Cascadia.woff2");
      }
    </style>
  </defs>
  <rect x="0" y="0" width="614" height="65" fill="#ffffff"></rect><g stroke-linecap="round" transform="translate(451 14) rotate(0 76.5 19.5)"><path d="M0.66 -0.09 C57.02 1, 117.56 -1.48, 154.93 -1.83 M-0.33 -0.25 C42.82 1.44, 83.67 1.9, 153.77 -0.72 M151.71 1.11 C153.16 14.39, 154.07 31.1, 153.64 38.44 M152.99 -0.54 C154.06 12.61, 153.21 25.79, 153.92 39.63 M154.66 38.75 C104.39 38.47, 56.05 38.29, -0.88 40.56 M152.52 39.15 C113.7 37.54, 76.27 39.12, 0.32 39.51 M-1.06 37.36 C1.05 28.06, -1.33 16.54, 1.81 1.76 M-0.09 39.61 C0.99 25.71, 0.86 11.94, 0.34 0.44" stroke="#000000" stroke-width="1" fill="none"></path></g><g transform="translate(456 21.5) rotate(0 71.5 12)"><text x="71.5" y="17" font-family="Virgil, Segoe UI Emoji" font-size="20px" fill="#000000" text-anchor="middle" style="white-space: pre;" direction="ltr">S3Connection</text></g><g stroke-linecap="round" transform="translate(238 10) rotate(0 68.5 22.5)"><path d="M1.6 -0.53 C30.21 -2.59, 55.85 -2.93, 135.65 0.07 M0.22 0.98 C39.47 -0.22, 77.34 1.41, 136.37 0.7 M137.56 0.98 C138.05 9.41, 135.53 23.72, 137.87 46.56 M137.74 0.67 C137.14 16.64, 136.2 32.37, 137.34 44.18 M138.99 43.42 C83.36 44.61, 30.54 43.14, -1.79 45.2 M136.99 44.73 C97.83 43.85, 56.24 43.16, 0.54 45.94 M0.73 43.25 C1.47 32.87, -1.07 16.42, 0.03 1.75 M-0.32 45.46 C-0.73 30.07, -0.36 16.48, 0.5 -0.65" stroke="#000000" stroke-width="1" fill="none"></path></g><g transform="translate(243 20.5) rotate(0 63.5 12)"><text x="63.5" y="17" font-family="Virgil, Segoe UI Emoji" font-size="20px" fill="#000000" text-anchor="middle" style="white-space: pre;" direction="ltr">S3Bucket</text></g><g stroke-linecap="round" transform="translate(10 10) rotate(0 74 22)"><path d="M-1.04 -0.97 C54.24 0.41, 107.35 1.92, 149.29 0.73 M0.01 0.14 C50.36 0.69, 99.46 -0.09, 148.51 -0.84 M149.35 -0.94 C147.65 14.48, 147.05 26.6, 146.72 43.8 M148.61 0.99 C148.14 17.26, 147.64 35.56, 147.8 45 M149.28 42.82 C101.96 45.27, 57.99 42.53, 1.82 42.69 M147.07 44.43 C93.7 45.77, 38.92 44.59, -0.65 44.52 M-0.41 43.39 C0.1 25.69, 1.26 8.81, 0.87 1.84 M0.1 43.72 C-0.39 30.7, -0.23 18.43, -0.27 -0.5" stroke="#000000" stroke-width="1" fill="none"></path></g><g transform="translate(15 20) rotate(0 69 12)"><text x="69" y="17" font-family="Virgil, Segoe UI Emoji" font-size="20px" fill="#000000" text-anchor="middle" style="white-space: pre;" direction="ltr">DruidCluster</text></g><g stroke-linecap="round"><g transform="translate(165 31) rotate(0 34.5 -1)"><path d="M-0.33 -0.74 C10.95 -1.19, 57.02 -2.29, 68.68 -2.55 M1.7 1.48 C12.7 1.18, 56.32 -0.86, 67.56 -1.31" stroke="#000000" stroke-width="1" fill="none"></path></g><g transform="translate(165 31) rotate(0 34.5 -1)"><path d="M38.6 9.63 C49.5 6.86, 60.48 0.47, 68.19 -0.89 M38.99 10.35 C49.11 6.36, 56.44 2.84, 68.31 -1.29" stroke="#000000" stroke-width="1" fill="none"></path></g><g transform="translate(165 31) rotate(0 34.5 -1)"><path d="M37.71 -10.88 C48.98 -5.8, 60.29 -4.35, 68.19 -0.89 M38.1 -10.15 C48.37 -7.67, 55.98 -4.72, 68.31 -1.29" stroke="#000000" stroke-width="1" fill="none"></path></g></g><g stroke-linecap="round"><g transform="translate(385 34) rotate(0 28 0.5)"><path d="M-0.09 -0.69 C9.31 -0.41, 47.64 1.06, 57 1.25 M-1.59 1.56 C7.68 1.49, 47.09 -0.72, 56.58 -0.74" stroke="#000000" stroke-width="1" fill="none"></path></g><g transform="translate(385 34) rotate(0 28 0.5)"><path d="M29.43 11.36 C40.21 6.11, 48.03 0.69, 55.18 -0.8 M31.4 10.68 C36.3 6.83, 41.7 4.67, 56.17 -0.93" stroke="#000000" stroke-width="1" fill="none"></path></g><g transform="translate(385 34) rotate(0 28 0.5)"><path d="M28.81 -7.78 C39.74 -6.28, 47.78 -4.95, 55.18 -0.8 M30.78 -8.47 C35.92 -8.4, 41.44 -6.65, 56.17 -0.93" stroke="#000000" stroke-width="1" fill="none"></path></g></g></svg>